<svg width="50" height="50" viewBox="0 0 50 50" fill="none" xmlns="http://www.w3.org/2000/svg">
<circle cx="25" cy="25" r="25" fill="#3CAEA7"/>
<path d="M32.4946 33.039C33.01 32.5271 33.8361 32.5271 34.3515 33.039L37.7577 35.7885H37.8168C38.5059 36.485 38.5059 37.6144 37.8168 38.3109C37.1277 39.0074 36.0104 39.0074 35.3213 38.3109L32.4946 35.0712L32.3873 34.9502C32.1875 34.6973 32.0772 34.382 32.0772 34.0551C32.0772 33.6738 32.2274 33.3082 32.4946 33.039ZM23.1038 12.1666C26.1371 12.1666 29.0461 13.3845 31.1909 15.5524C33.3357 17.7203 34.5407 20.6607 34.5407 23.7265C34.5407 30.1109 29.4202 35.2864 23.1038 35.2864C16.7874 35.2864 11.667 30.1109 11.667 23.7265C11.667 17.3422 16.7874 12.1666 23.1038 12.1666Z" fill="white"/>
</svg>
