<svg width="50" height="50" viewBox="0 0 50 50" fill="none" xmlns="http://www.w3.org/2000/svg">
<circle cx="25" cy="25" r="25" fill="#3CAEA7"/>
<path d="M25.7613 11.2994L34.6112 14.2686C35.6019 14.5994 36.2717 15.5094 36.277 16.5293L36.3334 25.3835C36.3509 28.0677 35.3723 30.6709 33.5803 32.7106C32.7562 33.6467 31.6997 34.4508 30.3507 35.1699L25.5935 37.7129C25.4445 37.7914 25.2808 37.8319 25.1157 37.8333C24.9506 37.8345 24.7855 37.7953 24.6378 37.7182L19.8363 35.234C18.4726 34.5266 17.4068 33.7343 16.5745 32.8112C14.753 30.7925 13.7409 28.2011 13.7234 25.5129L13.667 16.6652C13.6617 15.6441 14.3194 14.7276 15.3047 14.3837L24.121 11.3085C24.6445 11.1229 25.2284 11.1189 25.7613 11.2994ZM29.9934 20.7915C29.5974 20.411 28.9598 20.4136 28.5692 20.7993L24.0778 25.2264L22.2388 23.4587C21.8428 23.0783 21.2066 23.0822 20.8146 23.4679C20.424 23.8536 20.428 24.4733 20.824 24.8538L23.3785 27.3119C23.5771 27.5028 23.8348 27.5969 24.0926 27.5943C24.3503 27.593 24.6067 27.4962 24.8027 27.3027L30.0014 22.1774C30.3921 21.7917 30.388 21.172 29.9934 20.7915Z" fill="white"/>
</svg>
