<svg width="50" height="50" viewBox="0 0 50 50" fill="none" xmlns="http://www.w3.org/2000/svg">
<circle cx="25" cy="25" r="25" fill="#3CAEA7"/>
<path d="M25.0003 11.1667C32.3603 11.1667 38.3337 17.1401 38.3337 24.5001C38.3337 31.8734 32.3603 37.8334 25.0003 37.8334C17.627 37.8334 11.667 31.8734 11.667 24.5001C11.667 17.1401 17.627 11.1667 25.0003 11.1667ZM30.1337 20.1134C30.2803 19.6467 29.8537 19.2067 29.387 19.3534L22.5603 21.4867C22.2803 21.5801 22.0537 21.7934 21.9737 22.0734L19.8403 28.9134C19.6937 29.3667 20.1337 29.8067 20.587 29.6601L27.387 27.5267C27.667 27.4467 27.8937 27.2201 27.9737 26.9401L30.1337 20.1134Z" fill="white"/>
</svg>
