<svg width="200" height="58" viewBox="0 0 200 58" fill="none" xmlns="http://www.w3.org/2000/svg">
<path d="M128.065 27.98C128.065 27.98 131.173 22.2041 137.214 20.8063C137.189 20.7587 137.168 20.7101 137.144 20.661C137.165 20.6463 137.185 20.6324 137.206 20.6188C137.566 20.3769 137.86 20.0686 138.031 19.6377C138.26 19.0594 138.127 18.4552 137.691 18.0935C137.618 18.0334 137.535 17.9866 137.457 17.9341C137.914 17.4849 138.205 16.953 138.205 16.2705C138.205 15.9698 138.136 15.6896 137.899 15.498C137.728 15.3602 137.525 15.3294 137.319 15.3294C137.059 15.3289 136.827 15.4423 136.6 15.5627C135.899 15.9365 135.16 16.1432 134.381 16.1631C133.967 16.1744 133.552 16.1702 133.138 16.1588C132.764 16.1485 132.391 16.1217 132.018 16.0978C131.629 16.0736 131.241 16.0416 130.853 16.0185C130.515 15.999 130.178 15.9845 129.841 15.9726C129.473 15.9602 129.105 15.9542 128.737 15.945C128.432 15.9375 128.127 15.945 127.825 15.9191C127.125 15.8591 126.56 15.5023 126.101 14.9348C125.74 14.4889 125.481 13.9715 125.246 13.4396C124.925 12.7129 124.568 12.011 124.101 11.382C123.621 10.7366 123.036 10.2469 122.308 9.98178C122.031 9.88088 121.742 9.81703 121.471 9.73928C121.506 9.60926 121.559 9.46673 121.581 9.31869C121.626 9.02673 121.599 8.74204 121.437 8.49208C121.318 8.30792 121.146 8.25667 120.976 8.37923C120.794 8.50981 120.62 8.65841 120.466 8.82362C120.254 9.04875 120.098 9.32411 119.961 9.6157C119.929 9.60385 119.901 9.5919 119.872 9.58275C119.67 9.51629 119.493 9.57034 119.37 9.73331C119.261 9.87966 119.189 10.0454 119.147 10.228C119.078 10.5292 119.088 10.8317 119.148 11.1335C118.934 11.2686 118.778 11.4644 118.63 11.6675C118.492 11.8581 118.379 12.0676 118.333 12.3095C118.321 12.377 118.326 12.4483 118.323 12.5174C118.334 12.526 118.346 12.5341 118.357 12.5423C118.43 12.4942 118.506 12.451 118.577 12.3987C118.786 12.2409 118.989 12.0698 119.206 11.9246C119.335 11.8382 119.486 11.7912 119.645 11.7184C119.646 11.7885 119.648 11.8273 119.646 11.8657C119.634 12.1627 119.651 12.4564 119.735 12.7409C119.847 13.1237 120.046 13.4241 120.429 13.5195C120.764 13.6021 121.05 13.4591 121.315 13.2561C121.427 13.1713 121.524 13.0654 121.635 12.9629C121.631 12.9877 121.629 13.0038 121.626 13.0195C121.472 13.816 121.273 14.5989 120.992 15.3533C120.525 16.6027 120.314 17.9023 120.325 19.2456C120.332 20.0001 120.418 20.7451 120.596 21.4774C120.63 21.6178 120.678 21.7506 120.718 21.8877C123.688 22.6803 126.976 24.3714 128.065 27.98Z" fill="#393939"/>
<path d="M134.164 24.3313C134.145 24.382 134.119 24.4278 134.097 24.4772C134.218 24.3997 134.344 24.3313 134.468 24.2598C134.387 24.269 134.305 24.2774 134.223 24.2893C134.202 24.2932 134.173 24.3115 134.164 24.3313Z" fill="#393939"/>
<path d="M44.7993 21.6034C45.316 21.2347 45.914 21.0025 46.6167 20.9273C47.5649 20.8264 48.5611 20.7421 49.4276 20.3593C50.8299 19.7395 52.2041 19.456 53.7126 19.6871C54.7169 19.8409 55.6105 19.531 56.0487 18.3497C56.1623 18.0434 56.4287 17.8065 56.6157 17.5305C57.8683 15.6877 57.3941 14.1186 55.6085 13.0025C54.0281 12.0144 52.3156 10.9151 51.2678 9.37737C50.044 7.5803 48.8028 5.90644 47.0576 4.60631C47.8074 3.36387 48.5632 2.19544 47.8451 0.702381C46.043 3.27314 46.043 3.27314 43.74 3.12679C44.4492 2.11387 44.349 1.10094 43.8714 0C43.1043 1.03728 42.413 1.99233 41.6999 2.92704C41.3373 3.40279 40.8257 3.78175 40.5807 4.31313C40.3561 4.80176 40.3987 5.43507 40.3218 6.01714C39.763 5.73152 39.268 5.32717 38.7299 5.24279C38.068 5.13919 37.3236 5.15272 36.6992 5.38439C35.7416 5.74076 35.6425 6.53938 36.3814 7.28553C36.8202 7.72936 37.335 8.08461 38.008 8.63765C35.028 10.0009 23.1849 16.279 24.1847 29.8447C30.2887 16.4242 40.9571 19.8215 44.7993 21.6034Z" fill="#393939"/>
<path d="M16.683 41.9676C15.8985 42.7262 14.4901 43.1064 12.4581 43.1064H6.53396V33.857H12.4149C14.4758 33.857 15.8985 34.2772 16.683 35.1145C17.4671 35.9521 17.8598 37.1145 17.8598 38.6006C17.8598 40.087 17.4671 41.2089 16.683 41.9676ZM6.53396 20.7196H11.8048C13.5753 20.7196 14.81 21.0677 15.5067 21.7632C16.204 22.4591 16.5521 23.471 16.5521 24.7988C16.5521 26.0952 16.197 27.1222 15.4849 27.8813C14.7734 28.6401 13.5321 29.0196 11.7612 29.0196H6.53396V20.7196ZM18.7743 31.2011C20.1093 30.6638 21.162 29.787 21.9322 28.5693C22.7013 27.3523 23.0862 25.8895 23.0862 24.1817C23.0862 21.3999 22.2728 19.226 20.6472 17.6601C19.0203 16.0954 16.4941 15.3125 13.0674 15.3125H0V48.513H13.6342C15.5504 48.513 17.1909 48.2921 18.5561 47.8489C19.9208 47.4065 21.0316 46.7742 21.889 45.9514C22.745 45.1297 23.3767 44.142 23.7834 42.9876C24.1894 41.8333 24.3933 40.5448 24.3933 39.1216C24.3933 36.9725 23.8924 35.2258 22.8907 33.8814C21.889 32.538 20.5164 31.6449 18.7743 31.2011Z" fill="#FFC700"/>
<path d="M55.7193 33.2906C55.7476 32.3107 55.9227 31.472 56.242 30.7765C56.5614 30.0811 56.9681 29.5276 57.4619 29.1162C57.9549 28.7064 58.5291 28.4057 59.1827 28.215C59.8358 28.0255 60.4958 27.9304 61.1638 27.9304C61.8898 27.9304 62.5722 28.0103 63.2114 28.1675C63.8501 28.3263 64.409 28.6114 64.8885 29.0217C65.3675 29.4327 65.745 29.9866 66.0212 30.6815C66.2968 31.3776 66.4497 32.2464 66.4783 33.2906H55.7193ZM72.0538 34.9585C72.0538 31.0186 71.1101 28.0093 69.2227 25.9294C67.3343 23.849 64.5762 22.8086 60.9466 22.8086C59.4068 22.8086 57.9698 23.0694 56.6342 23.591C55.2978 24.1131 54.1221 24.8878 53.1055 25.9155C52.2713 26.7582 51.5924 27.7873 51.0519 28.9812C50.9339 29.2426 50.8143 29.5024 50.7103 29.7809C50.5896 30.1011 50.4896 30.4408 50.3943 30.7846C50.0288 32.1016 49.8389 33.5799 49.8389 35.2356V36.1831C49.8389 38.3651 50.144 40.2705 50.7539 41.8984C51.3634 43.5269 52.1909 44.8709 53.2363 45.9302C54.2822 46.9897 55.5085 47.7797 56.9174 48.3012C58.3253 48.8233 59.8139 49.0841 61.3816 49.0841C64.0827 49.0841 66.3479 48.4183 68.1772 47.0869C70.0067 45.7553 71.1537 43.7743 71.6188 41.1425H66.3479C66.0281 42.0663 65.4916 42.7678 64.7362 43.2451C63.9806 43.7235 62.8627 43.9616 61.3816 43.9616C60.6853 43.9616 59.995 43.8422 59.313 43.6042C58.6303 43.365 58.0282 42.9903 57.5051 42.4805C56.9828 41.9708 56.5614 41.3094 56.242 40.4973C55.9227 39.6846 55.7476 38.7219 55.7193 37.6064H72.0538V34.9585Z" fill="#FFC700"/>
<path d="M99.5359 35.472C100.755 35.0296 101.648 34.3337 102.214 33.3851C102.781 32.4365 103.064 31.3619 103.064 30.1599C103.064 29.0536 102.882 28.0492 102.519 27.1482C102.156 26.2474 101.583 25.4727 100.799 24.8242C100.015 24.1768 99.0197 23.679 97.8152 23.3302C96.6101 22.9829 95.165 22.8086 93.481 22.8086C90.3156 22.8086 87.8907 23.5282 86.2066 24.9667C84.5225 26.4057 83.6076 28.4845 83.4623 31.2031H89.299C89.4151 30.1918 89.7855 29.4246 90.4098 28.903C91.0336 28.3813 92.0577 28.1205 93.481 28.1205C94.8456 28.1205 95.8112 28.3658 96.3779 28.856C96.9438 29.3462 97.227 29.9548 97.227 30.6815C97.227 31.5045 96.9364 32.1679 96.3557 32.6734C95.7749 33.1798 94.9324 33.4325 93.8296 33.4325H90.6499V38.0805H94.1346C95.6154 38.0805 96.6457 38.3181 97.227 38.7917C97.8077 39.2661 98.0983 39.9774 98.0983 40.926C98.0983 41.7171 97.7502 42.3893 97.053 42.9422C96.3557 43.4957 95.165 43.7721 93.481 43.7721C92.6384 43.7721 91.9347 43.7008 91.3684 43.5583C90.8021 43.4157 90.3449 43.2029 89.9962 42.9183C89.6482 42.6338 89.3863 42.2861 89.2123 41.8747C89.0377 41.4644 88.9221 40.9898 88.8636 40.4518H83.0264C83.1717 43.2343 84.1159 45.3687 85.8579 46.8547C87.6006 48.3417 90.1415 49.0841 93.481 49.0841C95.2815 49.0841 96.8353 48.8859 98.1414 48.4907C99.4491 48.0955 100.53 47.5426 101.387 46.8314C102.243 46.1199 102.882 45.2824 103.304 44.3175C103.724 43.3537 103.936 42.3018 103.936 41.1636C103.936 39.804 103.615 38.6257 102.976 37.6296C102.338 36.6334 101.191 35.9153 99.5359 35.472Z" fill="#393939"/>
<path d="M120.529 42.843C119.905 43.2696 118.94 43.4835 117.632 43.4835H112.057V38.0759H117.632C118.997 38.0759 119.978 38.2898 120.573 38.7168C121.168 39.1433 121.466 39.8312 121.466 40.78C121.466 41.7287 121.153 42.416 120.529 42.843ZM112.057 28.4011H115.429H117.067C118.373 28.4011 119.288 28.6143 119.811 29.0415C120.333 29.468 120.595 30.0927 120.595 30.9146C120.595 31.3271 120.532 31.685 120.414 31.9944C120.287 32.3249 120.095 32.5991 119.832 32.8118C119.324 33.2233 118.402 33.4285 117.067 33.4285H112.057V28.4011ZM126.018 37.6255C125.219 36.5666 124.108 35.847 122.686 35.4678C123.818 35.1202 124.711 34.4329 125.365 33.4048C125.654 32.9496 125.869 32.4778 126.03 31.9944C126.232 31.3869 126.344 30.7601 126.344 30.1084C126.344 29.1468 126.188 28.2618 125.881 27.4518C125.875 27.4367 125.871 27.4204 125.866 27.4054C125.546 26.5831 125.038 25.8714 124.341 25.2705C123.644 24.6705 122.765 24.2035 121.705 23.8714C121.666 23.859 121.622 23.8508 121.582 23.8391C120.546 23.5313 119.321 23.373 117.894 23.373H115.314H106.308V48.5109H118.766C121.611 48.5109 123.731 47.863 125.125 46.566C126.518 45.2703 127.216 43.5304 127.216 41.3491C127.216 39.9258 126.817 38.6854 126.018 37.6255Z" fill="#393939"/>
<path d="M134.924 33.2906C134.938 32.8274 134.986 32.398 135.065 31.9985C135.153 31.5526 135.278 31.1433 135.447 30.7765C135.766 30.0811 136.173 29.5276 136.667 29.1162C137.16 28.7064 137.734 28.4057 138.387 28.215C139.04 28.0255 139.701 27.9304 140.369 27.9304C140.89 27.9304 141.38 27.9861 141.856 28.0676C142.044 28.0995 142.236 28.1234 142.416 28.1675C143.055 28.3263 143.614 28.6114 144.094 29.0217C144.573 29.4327 144.95 29.9866 145.226 30.6815C145.502 31.3776 145.655 32.2464 145.683 33.2906H134.924ZM151.259 34.9585C151.259 31.0186 150.315 28.0093 148.428 25.9294C146.849 24.1902 144.653 23.1881 141.856 22.9031C141.309 22.8469 140.746 22.8086 140.152 22.8086C138.612 22.8086 137.175 23.0694 135.839 23.591C135.814 23.6012 135.79 23.6148 135.764 23.6244C135.67 23.789 135.521 23.9046 135.358 23.9964C135.102 24.1406 134.826 24.2163 134.541 24.2541C134.516 24.2572 134.492 24.2598 134.469 24.2632C134.344 24.335 134.217 24.404 134.096 24.4813C133.456 24.8878 132.858 25.362 132.31 25.9155C131.872 26.3591 131.481 26.8614 131.123 27.4031C130.653 28.1146 130.245 28.9009 129.915 29.7809C129.658 30.4645 129.468 31.2095 129.325 31.9985C129.144 32.9963 129.044 34.0693 129.044 35.2356V36.1831C129.044 38.3651 129.348 40.2705 129.958 41.8984C130.568 43.5269 131.396 44.8709 132.441 45.9302C133.487 46.9897 134.714 47.7797 136.122 48.3012C137.53 48.8233 139.019 49.0841 140.586 49.0841C143.288 49.0841 145.553 48.4183 147.382 47.0869C149.212 45.7553 150.359 43.7743 150.824 41.1425H145.553C145.233 42.0663 144.696 42.7678 143.941 43.2451C143.185 43.7235 142.068 43.9616 140.586 43.9616C139.89 43.9616 139.2 43.8422 138.518 43.6042C137.835 43.365 137.233 42.9903 136.71 42.4805C136.188 41.9708 135.766 41.3094 135.447 40.4973C135.127 39.6846 134.953 38.7219 134.924 37.6064H151.259V34.9585Z" fill="#393939"/>
<path d="M134.544 24.2516C134.829 24.2138 135.105 24.1382 135.362 23.9936C135.525 23.9024 135.672 23.7868 135.768 23.6221C135.315 23.8031 134.887 24.0211 134.472 24.2608C134.496 24.2576 134.52 24.2548 134.544 24.2516Z" fill="#393939"/>
<path d="M174.869 34.2756C175.335 34.593 175.595 35.0478 175.563 35.6762C175.506 36.8075 175.158 37.8392 174.655 38.8121C174.181 39.7274 173.472 40.3403 172.522 40.5644C171.844 40.7242 171.158 40.8781 170.469 40.9386C169.676 41.0093 169.29 41.3613 168.842 42.0406C168.799 42.1064 168.718 42.1771 168.611 42.2501C167.651 43.262 166.494 43.7716 165.136 43.7716C163.422 43.7716 162.035 43.2264 160.976 42.1357C159.915 41.045 159.385 39.3776 159.385 37.1319V34.2869C159.385 32.2313 159.93 30.6897 161.019 29.6617C161.217 29.4748 161.428 29.3112 161.645 29.1584C161.651 29.1315 161.655 29.1093 161.662 29.0813C162.408 25.9015 163.84 25.0089 163.84 25.0089C164.208 25.5916 164.949 27.3583 165.065 27.5748C165.475 28.3388 166.146 27.7945 166.356 27.543C166.681 27.1552 167.75 25.4863 167.92 25.2319C168.338 26.3318 168.227 27.375 168.052 28.1007C167.905 28.7141 168.62 29.2281 169.115 29.4911C169.791 29.8512 169.55 29.707 170.236 30.0451C171.257 30.5473 172.01 31.3485 172.537 32.4241C172.817 32.9942 173.268 33.3776 173.803 33.6547C174.167 33.8426 174.528 34.0434 174.869 34.2756ZM166.486 22.8086C164.569 22.8086 162.986 23.2352 161.738 24.0889C160.489 24.9425 159.574 25.9387 158.993 27.077V23.3772H153.636V58.0004H159.385V45.0518C160.14 46.2549 161.12 47.2268 162.326 47.9692C163.53 48.7122 164.917 49.0843 166.486 49.0843C169.506 49.0843 171.894 48.0167 173.651 45.8829C175.408 43.7484 176.286 40.5157 176.286 36.1833V35.2351C176.286 31.0931 175.422 27.9861 173.695 25.9155C171.967 23.8443 169.564 22.8086 166.486 22.8086Z" fill="#393939"/>
<path d="M194.686 23.375L184.406 39.501V23.375H178.656V48.5122H183.971L194.251 32.3867V48.5122H200V23.375H194.686Z" fill="#393939"/>
<path d="M40.708 42.7997C39.8804 43.4481 38.9 43.7716 37.7678 43.7716C36.9834 43.7716 36.2573 43.6296 35.5899 43.345C34.9214 43.06 34.3407 42.6102 33.8478 41.9935C33.3528 41.3764 32.9691 40.5864 32.6928 39.6216C32.5897 39.2608 32.5122 38.8661 32.4473 38.4547C32.4418 38.4186 32.4359 38.3835 32.431 38.3472C32.4032 38.3706 32.3749 38.3938 32.3476 38.4169C32.2266 38.3667 32.1067 38.3144 31.9831 38.2797C31.1888 38.0584 30.3858 37.8747 29.5825 37.6912C29.0559 37.5708 28.5545 37.383 28.2253 36.8603C27.8202 36.2167 27.4323 35.5558 27.0694 34.8797C26.9964 34.7448 26.985 34.619 27.0013 34.5017C27.0276 34.3161 27.1441 34.1599 27.3495 34.0779C27.8716 33.8683 28.3908 33.6449 28.9126 33.4321C29.3906 33.2378 29.8706 33.052 30.3581 32.897C31.0385 32.6805 31.4754 32.274 31.7561 31.5347C31.762 31.519 31.7704 31.5056 31.7764 31.4898C32.0516 30.7901 32.482 30.2274 33.0687 29.8307C33.5969 29.4738 34.0962 29.0558 34.6337 28.719C35.146 28.3987 35.385 28.0013 35.3186 27.2794C35.2705 26.7525 35.385 26.1947 35.4818 25.6643C35.5493 25.2886 35.7585 25.2352 36.0134 25.4846C36.1437 25.6121 36.243 25.7831 36.3739 25.9581C36.4135 25.8587 36.4324 25.8279 36.4383 25.7934C36.5027 25.423 36.6416 25.0695 36.9779 25.0143C37.2868 24.9641 37.4767 25.2794 37.616 25.5704C37.9364 26.2346 38.231 26.9166 38.5612 27.5748C38.6585 27.7686 38.8152 27.9609 38.9848 28.0618C39.1162 28.1396 39.2331 28.2227 39.3399 28.3101C40.0862 28.9229 40.3147 29.7357 41.2352 30.2767C41.2842 30.3052 41.3189 30.3425 41.3597 30.3765C41.8922 30.8236 41.7802 31.6934 42.4213 32.0698C42.3783 32.1228 42.344 32.1725 42.3093 32.2231C42.5851 32.1147 42.8633 32.0125 43.1425 31.9143H48.2219C48.1966 31.5417 48.1476 31.1788 48.0866 30.8198C47.9402 29.9608 47.6987 29.1389 47.3511 28.3577C46.8562 27.2513 46.1744 26.287 45.304 25.4647C44.6515 24.849 43.8887 24.3308 43.0165 23.9107C42.7238 23.7692 42.4189 23.6391 42.1015 23.5198C40.8389 23.0457 39.3939 22.8086 37.7678 22.8086C36.2287 22.8086 34.7766 23.0776 33.4119 23.6148C32.0467 24.1525 30.8486 24.9425 29.8187 25.9863C28.7865 27.0293 27.9669 28.3264 27.3574 29.875C26.802 31.2852 26.5129 32.9013 26.4628 34.7037C26.4583 34.8824 26.4424 35.0525 26.4424 35.235V36.1832C26.4424 38.3338 26.7321 40.215 27.3138 41.8273C27.4431 42.1879 27.5881 42.5308 27.7397 42.8646C28.2664 44.0232 28.92 45.0248 29.709 45.8585C30.7256 46.934 31.9236 47.7402 33.3028 48.278C34.6818 48.8148 36.1705 49.0842 37.7678 49.0842C39.19 49.0842 40.5116 48.8703 41.7321 48.4433C42.9516 48.0167 44.0187 47.4083 44.9336 46.6177C45.848 45.8273 46.5883 44.8704 47.1547 43.7485C47.7211 42.6258 48.0766 41.3699 48.2219 39.9775H42.3847C42.0946 41.2113 41.5357 42.1517 40.708 42.7997Z" fill="#FFC700"/>
<path d="M125.055 13.0482C124.942 12.8066 124.822 12.569 124.695 12.3369H119.645C119.658 12.4735 119.683 12.6086 119.722 12.7417C119.754 12.8517 119.794 12.9547 119.843 13.0482H121.534C121.563 13.0201 121.592 12.9918 121.622 12.9637C121.618 12.9885 121.616 13.0047 121.614 13.0203L121.608 13.0482H125.055ZM118.317 12.3369C118.309 12.3964 118.313 12.4582 118.311 12.5183C118.322 12.5269 118.333 12.535 118.344 12.5431C118.418 12.495 118.493 12.4518 118.564 12.3995L118.646 12.3369H118.317Z" fill="#393939"/>
<path d="M55.6822 13.0482C55.6595 13.0335 55.6367 13.0189 55.6135 13.0044C55.2679 12.7884 54.9162 12.567 54.5664 12.3369H32.1093C31.8315 12.5634 31.5523 12.8008 31.2734 13.0482H55.6822Z" fill="#393939"/>
<path d="M137.591 18.0257C137.544 17.9943 137.495 17.965 137.449 17.9338C137.642 17.7438 137.806 17.5391 137.93 17.3145H120.463C120.424 17.55 120.393 17.7871 120.37 18.0257H137.591Z" fill="#393939"/>
<path d="M56.2409 18.0257C56.3626 17.8586 56.5092 17.7025 56.6252 17.5312C56.6746 17.4585 56.721 17.3863 56.7651 17.3145H27.4913C27.3334 17.5467 27.1788 17.7835 27.0283 18.0257H56.2409Z" fill="#393939"/>
<path d="M0 18.0257H21.0018C20.8883 17.9003 20.7701 17.7784 20.6472 17.6601C20.5226 17.5402 20.3928 17.4252 20.2576 17.3145H0V18.0257Z" fill="#FFC700"/>
<path d="M0 47.8987H18.4003C18.4526 47.8826 18.5046 47.8663 18.5561 47.8496C19.1323 47.6628 19.6635 47.4421 20.1492 47.1875H0V47.8987Z" fill="#FFC700"/>
<path d="M55.9808 47.8958H66.8493C67.2638 47.6865 67.6601 47.4494 68.0382 47.1846H54.75C55.1412 47.4498 55.5514 47.6869 55.9808 47.8958Z" fill="#FFC700"/>
<path d="M86.2705 47.1846C86.6313 47.4495 87.0221 47.6865 87.4425 47.8958H99.6795C100.125 47.684 100.535 47.4469 100.909 47.1846H86.2705Z" fill="#393939"/>
<path d="M106.308 47.8958H122.878C123.413 47.7037 123.897 47.4666 124.331 47.1846H106.308V47.8958Z" fill="#393939"/>
<path d="M135.184 47.8958H146.052C146.467 47.6865 146.863 47.4494 147.241 47.1846H133.953C134.344 47.4498 134.754 47.6869 135.184 47.8958Z" fill="#393939"/>
<path d="M153.636 47.8958H159.385V47.1846H153.636V47.8958ZM162.215 47.8958H171.295C171.658 47.6865 172.005 47.4493 172.335 47.1846H161.241C161.547 47.4407 161.872 47.6778 162.215 47.8958Z" fill="#393939"/>
<path d="M178.656 47.1846V47.8958H184.363L184.816 47.1846H178.656ZM194.251 47.1846V47.8958H200V47.1846H194.251Z" fill="#393939"/>
<path d="M31.2578 47.1846C31.6389 47.4494 32.0386 47.6865 32.457 47.8958H43.0202C43.4379 47.6846 43.8337 47.4475 44.2081 47.1846H31.2578Z" fill="#FFC700"/>
<path d="M138.119 19.2904C138.156 19.0409 138.128 18.7967 138.04 18.5791H120.332C120.321 18.8 120.317 19.0222 120.319 19.2456L120.319 19.2904H138.119Z" fill="#393939"/>
<path d="M55.4468 19.2904C55.6495 19.1148 55.8254 18.8807 55.9666 18.5791H26.7013C26.5669 18.8119 26.4361 19.0488 26.3096 19.2904H55.4468Z" fill="#393939"/>
<path d="M0 19.2904H21.9237C21.7811 19.0435 21.6252 18.8064 21.4563 18.5791H0V19.2904Z" fill="#FFC700"/>
<path d="M48.1722 5.5384C47.9109 5.2918 47.6383 5.05434 47.3519 4.82715H40.4402C40.4028 5.05527 40.3888 5.29665 40.3724 5.5384H48.1722ZM39.4969 5.5384C39.2455 5.3982 38.9962 5.28321 38.7368 5.24251C38.0749 5.1389 37.3305 5.15244 36.7061 5.38411C36.5857 5.42891 36.479 5.48062 36.3857 5.5384H39.4969Z" fill="#393939"/>
<path d="M44.0921 0.559947C44.0345 0.375601 43.9636 0.189106 43.8816 0C43.7416 0.189293 43.6042 0.375788 43.4688 0.559947H44.0921Z" fill="#393939"/>
<path d="M6.53396 34.2259V33.8566H12.4149C13.531 33.8566 14.4598 33.9799 15.2016 34.2259H23.1308C23.0543 34.1082 22.9743 33.9931 22.8907 33.881C22.7967 33.7549 22.6995 33.6328 22.5989 33.5146H0V34.2259H6.53396Z" fill="#FFC700"/>
<path d="M49.8701 34.2259H72.0495C72.042 33.9851 72.0308 33.748 72.0159 33.5146H49.9188C49.8982 33.7477 49.882 33.9848 49.8701 34.2259Z" fill="#FFC700"/>
<path d="M101.556 34.2259C101.772 34.0083 101.963 33.7712 102.128 33.5146H90.6455V34.2259H101.556Z" fill="#393939"/>
<path d="M106.308 34.2259H124.725C124.931 34.0116 125.121 33.7746 125.294 33.5146H106.308V34.2259Z" fill="#393939"/>
<path d="M129.072 34.2259H151.25C151.243 33.9851 151.232 33.748 151.217 33.5146H129.123C129.102 33.7477 129.085 33.9847 129.072 34.2259Z" fill="#393939"/>
<path d="M159.385 34.2259C159.387 33.9814 159.396 33.7444 159.412 33.5146H153.636V34.2259H159.385ZM173.559 33.5146C173.638 33.5634 173.72 33.6091 173.803 33.6523C174.142 33.8273 174.478 34.0136 174.798 34.2259H176.269C176.26 33.985 176.248 33.7479 176.233 33.5146H173.559Z" fill="#393939"/>
<path d="M188.223 33.5146L187.769 34.2259H193.078L193.532 33.5146H188.223ZM184.406 34.2259V33.5146H178.656V34.2259H184.406ZM194.251 33.5146V34.2259H200V33.5146H194.251Z" fill="#393939"/>
<path d="M27.1223 34.2259C27.1784 34.1636 27.2524 34.1123 27.3441 34.0756C27.7971 33.8937 28.248 33.7014 28.7003 33.5146H26.5278C26.5062 33.7482 26.4892 33.9853 26.4766 34.2259H27.1223Z" fill="#FFC700"/>
<path d="M153.636 52.8763H159.385V52.165H153.636V52.8763Z" fill="#393939"/>
<path d="M153.636 57.8568H159.385V57.1455H153.636V57.8568Z" fill="#393939"/>
<path d="M24.1328 28.5342C24.1361 28.769 24.1429 29.0059 24.1542 29.2454H24.4702C24.5877 29.0021 24.7071 28.7659 24.8277 28.5342H24.1328Z" fill="#393939"/>
<path d="M0 29.2454H21.4454C21.6186 29.0324 21.7809 28.8065 21.9322 28.5672L21.9529 28.5342H14.5481C13.844 28.8564 12.9151 29.0175 11.7612 29.0175H6.53396V28.5342H0V29.2454Z" fill="#FFC700"/>
<path d="M57.3119 29.2454C57.3615 29.1994 57.4121 29.155 57.4635 29.1121C57.7351 28.8863 58.0315 28.6936 58.3523 28.5342H51.2642C51.1918 28.6791 51.1216 28.8269 51.0535 28.9772C51.0132 29.0665 50.9727 29.1556 50.9326 29.2454H57.3119ZM64.184 28.5342C64.436 28.6692 64.6712 28.8304 64.8901 29.0177C64.9735 29.0893 65.0538 29.1652 65.1311 29.2454H71.18C71.092 29.0019 70.9976 28.7646 70.8963 28.5342H64.184Z" fill="#FFC700"/>
<path d="M103.021 29.2454C102.998 29.0028 102.964 28.7658 102.921 28.5342H95.8865C96.0745 28.6252 96.2384 28.7311 96.3781 28.8519C96.5208 28.9756 96.6455 29.1067 96.7522 29.2454H103.021ZM83.9117 28.5342C83.841 28.7645 83.7784 29.0017 83.7236 29.2454H90.0625C90.1679 29.1199 90.2837 29.0044 90.4099 28.899C90.5779 28.7584 90.7752 28.6369 91.0013 28.5342H83.9117Z" fill="#393939"/>
<path d="M106.308 29.2454H112.057V28.5342H106.308V29.2454ZM120.027 29.2454H126.3C126.275 29.003 126.239 28.7659 126.192 28.5342H118.609C119.126 28.64 119.526 28.8091 119.811 29.0416C119.889 29.1051 119.961 29.1731 120.027 29.2454Z" fill="#393939"/>
<path d="M136.52 29.2454C136.569 29.1994 136.62 29.155 136.671 29.1121C136.943 28.8863 137.239 28.6936 137.56 28.5342H130.466C130.349 28.7641 130.238 29.0009 130.133 29.2454H136.52ZM143.391 28.5342C143.643 28.6692 143.879 28.8304 144.098 29.0177C144.181 29.0893 144.261 29.1652 144.339 29.2454H150.388C150.3 29.0019 150.205 28.7646 150.104 28.5342H143.391Z" fill="#393939"/>
<path d="M161.518 29.2454C161.56 29.2146 161.602 29.1843 161.645 29.1543C161.651 29.1275 161.655 29.1052 161.662 29.0772C161.706 28.8881 161.753 28.7074 161.802 28.5342H153.636V29.2454H161.518ZM168.086 28.5342C168.194 28.8121 168.451 29.0556 168.72 29.2454H175.473C175.394 29.0014 175.309 28.7644 175.218 28.5342H168.086Z" fill="#393939"/>
<path d="M191.396 28.5342L190.943 29.2454H200V28.5342H191.396ZM184.406 29.2454V28.5342H178.656V29.2454H184.406Z" fill="#393939"/>
<path d="M33.8756 29.2454C34.1257 29.0603 34.377 28.8781 34.6375 28.715C34.7291 28.6577 34.812 28.5979 34.886 28.5342H27.9724C27.8508 28.7644 27.7351 29.0015 27.625 29.2454H33.8756ZM39.5915 28.5342C39.813 28.7605 39.9899 29.0041 40.1721 29.2454H47.7003C47.6203 29.0049 47.5313 28.7677 47.433 28.5342H39.5915Z" fill="#FFC700"/>
<path d="M24.1895 29.7988L24.192 29.8421L24.212 29.7988H24.1895Z" fill="#393939"/>
<path d="M0 30.5101H20.0722C20.3829 30.2984 20.6725 30.0613 20.9411 29.7988H0V30.5101Z" fill="#FFC700"/>
<path d="M56.3652 30.5101C56.4996 30.2511 56.6476 30.014 56.809 29.7988H50.697C50.6116 30.0281 50.5365 30.267 50.4658 30.5101H56.3652ZM65.5643 29.7988C65.7066 30.0151 65.8339 30.2521 65.9463 30.5101H71.556C71.4956 30.2675 71.4297 30.0304 71.3583 29.7988H65.5643Z" fill="#FFC700"/>
<path d="M103.054 30.5101C103.06 30.3933 103.063 30.2753 103.063 30.156C103.063 30.0357 103.06 29.9167 103.056 29.7988H97.0657C97.1531 30.0209 97.2046 30.2581 97.2203 30.5101H103.054ZM83.6132 29.7988C83.574 30.0304 83.5415 30.2675 83.5156 30.5101H89.4258C89.4946 30.2527 89.5844 30.0157 89.6954 29.7988H83.6132Z" fill="#393939"/>
<path d="M106.308 30.5101H112.057V29.7988H106.308V30.5101ZM120.572 30.5101H126.33C126.34 30.3773 126.344 30.2436 126.344 30.1087C126.344 30.0045 126.343 29.9012 126.339 29.7988H120.385C120.479 30.0123 120.541 30.2495 120.572 30.5101Z" fill="#393939"/>
<path d="M135.576 30.5101C135.71 30.2511 135.858 30.014 136.02 29.7988H129.908C129.822 30.0292 129.744 30.2665 129.672 30.5101H135.576ZM144.775 29.7988C144.917 30.0151 145.045 30.2521 145.157 30.5101H150.767C150.706 30.2675 150.64 30.0304 150.569 29.7988H144.775Z" fill="#393939"/>
<path d="M160.314 30.5101C160.479 30.2523 160.667 30.0151 160.876 29.7988H153.636V30.5101H160.314ZM169.729 29.7988C169.826 29.8435 169.951 29.9008 170.236 30.0412C170.51 30.1761 170.765 30.3325 171.001 30.5101H175.818C175.763 30.2673 175.704 30.0301 175.64 29.7988H169.729Z" fill="#393939"/>
<path d="M190.59 29.7988L190.137 30.5101H200V29.7988H190.59ZM184.406 30.5101V29.7988H178.656V30.5101H184.406Z" fill="#393939"/>
<path d="M32.328 30.5101C32.5378 30.2462 32.7834 30.0174 33.0652 29.8269L33.1066 29.7988H27.3826L27.3539 29.8712C27.2718 30.0797 27.1956 30.2926 27.125 30.5101H32.328ZM40.6276 29.7988C40.7959 29.9699 40.9898 30.1307 41.2316 30.2729C41.2807 30.3014 41.3154 30.3387 41.3562 30.3727C41.4065 30.415 41.451 30.4611 41.491 30.5101H48.0266C47.9788 30.27 47.9233 30.0328 47.8598 29.7988H40.6276Z" fill="#FFC700"/>
<path d="M49.3629 6.80305C49.1572 6.55999 48.9456 6.32272 48.7264 6.0918H35.9322C35.8698 6.31059 35.9022 6.55383 36.0286 6.80305H49.3629Z" fill="#393939"/>
<path d="M6.53396 35.4876V34.7764H0V35.4876H6.53396ZM16.3052 34.7764C16.4444 34.8795 16.5703 34.9911 16.683 35.1114C16.7943 35.2302 16.8976 35.3556 16.9932 35.4876H23.7782C23.6816 35.2414 23.5736 35.0043 23.4543 34.7764H16.3052Z" fill="#FFC700"/>
<path d="M49.8389 35.4876H72.0538V34.9534L72.0531 34.7764H49.8437C49.8404 34.9263 49.8389 35.0776 49.8389 35.2305V35.4876Z" fill="#FFC700"/>
<path d="M99.5315 35.4669C100.043 35.2813 100.497 35.0512 100.894 34.7764H90.6455V35.4876H99.6077L99.5315 35.4669Z" fill="#393939"/>
<path d="M106.308 35.4876H122.762L122.686 35.4669C123.204 35.3078 123.672 35.0778 124.09 34.7764H106.308V35.4876Z" fill="#393939"/>
<path d="M129.045 35.4876H151.26V34.9534L151.259 34.7764H129.05C129.047 34.9262 129.045 35.0775 129.045 35.2305V35.4876Z" fill="#393939"/>
<path d="M175.359 34.7764C175.481 34.9802 175.552 35.2162 175.564 35.4876H176.286V35.23C176.286 35.0773 176.285 34.9263 176.283 34.7764H175.359ZM159.385 35.4876V34.7764H153.636V35.4876H159.385Z" fill="#393939"/>
<path d="M187.416 34.7764L186.963 35.4876H192.272L192.726 34.7764H187.416ZM184.406 35.4876V34.7764H178.656V35.4876H184.406ZM194.251 34.7764V35.4876H200V34.7764H194.251Z" fill="#393939"/>
<path d="M27.4072 35.4876C27.2924 35.2848 27.1796 35.0805 27.0692 34.8747C27.0512 34.8414 27.0369 34.8086 27.026 34.7764H26.4602C26.454 34.9272 26.4424 35.0741 26.4424 35.23V35.4876H27.4072Z" fill="#FFC700"/>
<path d="M6.53396 36.7532V36.042H0V36.7532H6.53396ZM17.3284 36.042C17.4401 36.2645 17.5341 36.5016 17.6106 36.7532H24.1569C24.104 36.5091 24.0421 36.2719 23.9713 36.042H17.3284Z" fill="#FFC700"/>
<path d="M49.8462 36.7532H72.0538V36.042H49.8389V36.1793C49.8389 36.3728 49.8413 36.5641 49.8462 36.7532Z" fill="#FFC700"/>
<path d="M90.6455 36.042V36.7532H102.201C101.887 36.4869 101.519 36.2498 101.097 36.042H90.6455Z" fill="#393939"/>
<path d="M106.308 36.7532H125.201C124.886 36.4817 124.54 36.2446 124.161 36.042H106.308V36.7532Z" fill="#393939"/>
<path d="M129.052 36.7532H151.26V36.042H129.045V36.1793C129.045 36.3728 129.047 36.5641 129.052 36.7532Z" fill="#393939"/>
<path d="M175.534 36.042C175.508 36.2835 175.469 36.5205 175.418 36.7532H176.281C176.285 36.5641 176.286 36.373 176.286 36.1795V36.042H175.534ZM159.385 36.7532V36.042H153.636V36.7532H159.385Z" fill="#393939"/>
<path d="M186.611 36.042L186.157 36.7532H191.466L191.92 36.042H186.611ZM184.406 36.7532V36.042H178.656V36.7532H184.406ZM194.251 36.042V36.7532H200V36.042H194.251Z" fill="#393939"/>
<path d="M28.1601 36.7532C28.0134 36.5184 27.869 36.2813 27.7275 36.042H26.4424V36.1795C26.4424 36.3729 26.4447 36.5642 26.4494 36.7532H28.1601Z" fill="#FFC700"/>
<path d="M0 31.7757H20.356C19.8679 31.5365 19.3406 31.3447 18.7743 31.2004C18.8814 31.1572 18.9866 31.1119 19.0901 31.0645H0V31.7757Z" fill="#FFC700"/>
<path d="M55.8995 31.7757C55.9579 31.5255 56.0298 31.2883 56.1153 31.0645H50.3144C50.2554 31.2966 50.2017 31.5337 50.1533 31.7757H55.8995ZM66.151 31.0645C66.2191 31.2866 66.2766 31.5237 66.3235 31.7757H71.8127C71.7739 31.534 71.7306 31.2969 71.6825 31.0645H66.151Z" fill="#FFC700"/>
<path d="M102.865 31.7757C102.923 31.5444 102.967 31.3073 102.998 31.0645H97.1952C97.1643 31.3188 97.1018 31.5559 97.0078 31.7757H102.865ZM83.4611 31.0645C83.4582 31.1096 83.4555 31.1549 83.4531 31.2004H89.2899C89.2951 31.1546 89.301 31.1093 89.3073 31.0645H83.4611Z" fill="#393939"/>
<path d="M106.308 31.7757H112.057V31.0645H106.308V31.7757ZM120.486 31.7757H126.099C126.168 31.5417 126.223 31.3046 126.264 31.0645H120.592C120.582 31.3237 120.547 31.5602 120.486 31.7757Z" fill="#393939"/>
<path d="M135.113 31.7757C135.171 31.5257 135.242 31.2883 135.326 31.0645H129.523C129.466 31.2968 129.414 31.534 129.367 31.7757H135.113ZM145.361 31.0645C145.429 31.2866 145.487 31.5237 145.534 31.7757H151.023C150.984 31.534 150.941 31.2969 150.893 31.0645H145.361Z" fill="#393939"/>
<path d="M159.73 31.7757C159.809 31.5258 159.902 31.2887 160.008 31.0645H153.636V31.7757H159.73ZM171.617 31.0645C171.819 31.2811 172.004 31.5184 172.172 31.7757H176.052C176.016 31.5337 175.976 31.2967 175.932 31.0645H171.617Z" fill="#393939"/>
<path d="M189.784 31.0645L189.331 31.7757H200V31.0645H189.784ZM184.406 31.7757V31.0645H178.656V31.7757H184.406Z" fill="#393939"/>
<path d="M31.6565 31.7757C31.6933 31.6989 31.7279 31.6178 31.7604 31.5322C31.7664 31.5165 31.7748 31.5031 31.7807 31.4873C31.8385 31.3402 31.9033 31.1991 31.9748 31.0645H26.9682C26.9051 31.297 26.848 31.534 26.7969 31.7757H31.6565ZM41.7867 31.0645C41.8794 31.3114 41.9604 31.5662 42.1103 31.7757H48.2159C48.1959 31.5354 48.1665 31.2988 48.1308 31.0645H41.7867Z" fill="#FFC700"/>
<path d="M50.3552 8.06867C50.1785 7.82776 49.9991 7.5904 49.8155 7.35742H36.4609C36.711 7.60076 36.9862 7.82114 37.3008 8.06867H50.3552Z" fill="#393939"/>
<path d="M47.8871 3.0882C47.9817 2.85504 48.0551 2.61889 48.0982 2.37695H46.6142C46.2709 2.77141 45.9848 2.98347 45.629 3.0882H47.8871ZM43.7728 3.0882C43.9337 2.85158 44.0508 2.61488 44.1295 2.37695H42.1219C41.9838 2.56121 41.8456 2.74424 41.7065 2.92644C41.6645 2.98151 41.6205 3.03527 41.5752 3.0882H43.7728Z" fill="#393939"/>
<path d="M15.3101 48.4492H0V48.5106H13.6342C14.2185 48.5106 14.7772 48.4901 15.3101 48.4492Z" fill="#FFC700"/>
<path d="M65.5223 48.4492H57.3516C58.6302 48.8699 59.9738 49.0801 61.3811 49.0801C62.8993 49.0801 64.2797 48.8698 65.5223 48.4492Z" fill="#FFC700"/>
<path d="M88.8281 48.4492C90.1528 48.8699 91.7035 49.0801 93.4803 49.0801C95.2809 49.0801 96.8347 48.8819 98.1408 48.4867L98.2627 48.4492H88.8281Z" fill="#393939"/>
<path d="M120.218 48.4492H106.308V48.5108H118.766C119.273 48.5108 119.757 48.4902 120.218 48.4492Z" fill="#393939"/>
<path d="M144.733 48.4492H136.562C137.841 48.8699 139.185 49.0801 140.592 49.0801C142.11 49.0801 143.491 48.8698 144.733 48.4492Z" fill="#393939"/>
<path d="M153.636 49.1605H159.385V48.4492H153.636V49.1605ZM170.134 48.4492H163.255C164.229 48.8698 165.306 49.0803 166.486 49.0803C167.826 49.0803 169.042 48.8698 170.134 48.4492Z" fill="#393939"/>
<path d="M178.656 48.4492V48.5104H183.971L184.01 48.4492H178.656ZM194.251 48.4492V48.5104H200V48.4492H194.251Z" fill="#393939"/>
<path d="M33.7861 48.4492C35.0284 48.8694 36.3564 49.0803 37.7693 49.0803C39.1805 49.0803 40.4927 48.8697 41.7054 48.4492H33.7861Z" fill="#FFC700"/>
<path d="M0 46.6341H21.0586C21.3578 46.4235 21.6346 46.1961 21.889 45.9519L21.919 45.9229H0V46.6341Z" fill="#FFC700"/>
<path d="M54.0141 46.6341H68.7494C69.0037 46.4119 69.2423 46.1748 69.4654 45.9229H53.2373L53.243 45.9287C53.49 46.1789 53.747 46.4139 54.0141 46.6341Z" fill="#FFC700"/>
<path d="M84.9375 45.9229C85.1447 46.1735 85.3684 46.4106 85.6088 46.6341H101.61C101.861 46.4089 102.091 46.1719 102.3 45.9229H84.9375Z" fill="#393939"/>
<path d="M106.308 46.6341H125.053C125.077 46.6124 125.101 46.5907 125.125 46.5687C125.345 46.3644 125.547 46.1491 125.732 45.9229H106.308V46.6341Z" fill="#393939"/>
<path d="M133.217 46.6341H147.953C148.207 46.4119 148.445 46.1748 148.668 45.9229H132.44L132.446 45.9287C132.693 46.1789 132.95 46.4139 133.217 46.6341Z" fill="#393939"/>
<path d="M153.636 46.6341H159.385V45.9229H153.636V46.6341ZM160.639 46.6341H172.96C173.188 46.4121 173.407 46.175 173.617 45.9229H160.005C160.204 46.1721 160.416 46.4092 160.639 46.6341Z" fill="#393939"/>
<path d="M178.656 45.9229V46.6341H185.169L185.622 45.9229H178.656ZM194.251 45.9229V46.6341H200V45.9229H194.251Z" fill="#393939"/>
<path d="M29.7764 45.9229C30.0191 46.1751 30.2719 46.4122 30.5349 46.6341H44.9175L44.9383 46.6163C45.191 46.3979 45.4303 46.1667 45.6564 45.9229H29.7764Z" fill="#FFC700"/>
<path d="M6.53396 41.6566V40.9453H0V41.6566H6.53396ZM17.4079 40.9453C17.2858 41.2053 17.1391 41.4424 16.9676 41.6566H24.1502C24.1978 41.4241 24.2384 41.187 24.272 40.9453H17.4079Z" fill="#FFC700"/>
<path d="M50.6651 41.6566H56.8314C56.6877 41.4367 56.5553 41.1996 56.4346 40.9453H50.4395C50.5087 41.1878 50.5839 41.4249 50.6651 41.6566ZM66.135 41.6566H71.516C71.5528 41.4879 71.5868 41.3165 71.6175 41.1422H66.3466C66.2843 41.3221 66.2137 41.4935 66.135 41.6566Z" fill="#FFC700"/>
<path d="M98.0964 40.9453C98.0946 41.1943 98.0582 41.4313 97.987 41.6566H103.92C103.929 41.494 103.934 41.3295 103.934 41.1633C103.934 41.0901 103.933 41.0175 103.931 40.9453H98.0964ZM89.1256 41.6566C89.0469 41.4361 88.9835 41.199 88.9351 40.9453H83.0596C83.0812 41.1876 83.1093 41.4247 83.1437 41.6566H89.1256Z" fill="#393939"/>
<path d="M112.057 41.6566V40.9453H106.308V41.6566H112.057ZM121.463 40.9453C121.453 41.2029 121.418 41.44 121.359 41.6566H127.211C127.214 41.5563 127.216 41.4551 127.216 41.3529C127.216 41.2153 127.212 41.0794 127.205 40.9453H121.463Z" fill="#393939"/>
<path d="M129.879 41.6566H136.046C135.902 41.4367 135.77 41.1996 135.649 40.9453H129.653C129.723 41.1878 129.798 41.4249 129.879 41.6566ZM145.349 41.6566H150.73C150.767 41.4879 150.801 41.3165 150.832 41.1422H145.561C145.499 41.3221 145.428 41.4935 145.349 41.6566Z" fill="#393939"/>
<path d="M170.4 40.9453C169.814 41.0118 169.457 41.242 169.12 41.6566H175.68C175.74 41.425 175.795 41.1878 175.846 40.9453H170.4ZM160.571 41.6566C160.41 41.4372 160.266 41.2002 160.137 40.9453H153.636V41.6566H160.571Z" fill="#393939"/>
<path d="M178.656 40.9453V41.6566H188.343L188.796 40.9453H178.656ZM194.251 40.9453V41.6566H200V40.9453H194.251Z" fill="#393939"/>
<path d="M33.6023 41.6566C33.4546 41.4376 33.3185 41.2005 33.1939 40.9453H27.0342C27.1021 41.1878 27.176 41.4249 27.2557 41.6566H33.6023ZM47.9302 41.6566C47.9888 41.424 48.0403 41.1869 48.0849 40.9453H42.0794C41.975 41.1989 41.8554 41.436 41.7207 41.6566H47.9302Z" fill="#FFC700"/>
<path d="M16.3961 42.207C15.9497 42.5324 15.3579 42.7697 14.6206 42.9183H23.807C23.8866 42.6865 23.9581 42.4495 24.0215 42.207H16.3961ZM6.53396 42.9183V42.207H0V42.9183H6.53396Z" fill="#FFC700"/>
<path d="M51.1833 42.9183H58.0224C57.8423 42.7847 57.67 42.6378 57.5055 42.4775C57.4175 42.3917 57.3324 42.3015 57.2501 42.207H50.875C50.9726 42.4507 51.0753 42.6879 51.1833 42.9183ZM65.1761 42.9183H71.1676C71.2463 42.6876 71.3183 42.4506 71.3837 42.207H65.8158C65.6314 42.4737 65.4182 42.7109 65.1761 42.9183Z" fill="#FFC700"/>
<path d="M97.7272 42.207C97.5644 42.4626 97.3476 42.6996 97.0769 42.9183H103.751C103.801 42.6856 103.841 42.4485 103.871 42.207H97.7272ZM89.9976 42.9183L89.994 42.9154C89.7448 42.7117 89.5399 42.4757 89.3796 42.207H83.2393C83.2881 42.4503 83.3444 42.6874 83.4084 42.9183H89.9976Z" fill="#393939"/>
<path d="M120.529 42.8443C120.492 42.8697 120.454 42.8944 120.414 42.9183H127.082C127.124 42.6874 127.156 42.4503 127.178 42.207H121.129C120.979 42.4611 120.779 42.6735 120.529 42.8443ZM112.057 42.9183V42.207H106.308V42.9183H112.057Z" fill="#393939"/>
<path d="M130.389 42.9183H137.229C137.049 42.7847 136.876 42.6378 136.712 42.4775C136.624 42.3917 136.539 42.3015 136.457 42.207H130.081C130.179 42.4507 130.282 42.6879 130.389 42.9183ZM144.382 42.9183H150.374C150.453 42.6876 150.525 42.4506 150.59 42.207H145.022C144.838 42.4737 144.624 42.7109 144.382 42.9183Z" fill="#393939"/>
<path d="M168.668 42.207C168.65 42.2203 168.631 42.2337 168.611 42.2472C168.368 42.503 168.113 42.7267 167.845 42.9183H175.292C175.376 42.6878 175.454 42.4506 175.527 42.207H168.668ZM161.939 42.9183C161.621 42.717 161.324 42.4799 161.049 42.207H153.636V42.9183H161.939Z" fill="#393939"/>
<path d="M178.656 42.207V42.9183H187.537L187.99 42.207H178.656ZM194.251 42.207V42.9183H200V42.207H194.251Z" fill="#393939"/>
<path d="M40.7071 42.7968C40.6537 42.8387 40.5996 42.8792 40.545 42.9183H47.5235C47.6145 42.6863 47.6976 42.4492 47.7725 42.207H41.3195C41.135 42.4251 40.9309 42.6216 40.7071 42.7968ZM34.825 42.9183C34.5397 42.719 34.2746 42.4819 34.0294 42.207H27.458C27.5472 42.4305 27.6416 42.648 27.7388 42.8617L27.7646 42.9183H34.825Z" fill="#FFC700"/>
<path d="M48.1398 1.82258C48.1325 1.5925 48.0937 1.35606 48.016 1.11133H47.5637C47.3739 1.38071 47.2057 1.61667 47.0527 1.82258H48.1398ZM44.2461 1.82258C44.2683 1.58774 44.258 1.35102 44.2203 1.11133H43.0587C42.882 1.35168 42.7076 1.58848 42.5342 1.82258H44.2461Z" fill="#393939"/>
<path d="M131.017 24.2679C131.269 24.0297 131.535 23.7913 131.818 23.5566H124.628C124.962 23.7734 125.285 24.0097 125.591 24.2679H131.017Z" fill="#393939"/>
<path d="M134.452 24.2672L134.465 24.2598L134.398 24.2672H134.452Z" fill="#393939"/>
<path d="M24.6821 23.5566C24.6247 23.7905 24.5725 24.028 24.5234 24.2679H27.7296C27.9554 24.0182 28.1836 23.7811 28.414 23.5566H24.6821Z" fill="#393939"/>
<path d="M0 24.2679H6.53396V23.5566H0V24.2679ZM16.5323 24.2679H23.0858L23.0862 24.1808C23.0862 23.9692 23.0814 23.7611 23.0719 23.5566H16.432C16.4795 23.7809 16.513 24.018 16.5323 24.2679Z" fill="#FFC700"/>
<path d="M55.2246 24.2679H67.1767C66.7039 23.9916 66.1983 23.7546 65.6599 23.5566H56.7174L56.6359 23.5881C56.1437 23.7804 55.6733 24.0071 55.2246 24.2679Z" fill="#FFC700"/>
<path d="M100.015 24.2679C99.5659 23.9947 99.066 23.7577 98.5154 23.5566H88.6499C88.1153 23.7546 87.621 23.9917 87.167 24.2679H100.015Z" fill="#393939"/>
<path d="M106.308 24.2679H122.745C122.42 24.1199 122.074 23.9881 121.705 23.8727C121.666 23.8603 121.622 23.8521 121.582 23.8404C121.192 23.7244 120.775 23.6296 120.33 23.5566H106.308V24.2679Z" fill="#393939"/>
<path d="M134.464 24.2679H146.38C145.902 23.991 145.391 23.7541 144.847 23.5566H135.929L135.847 23.5881C135.822 23.5984 135.799 23.6119 135.773 23.6215C135.678 23.7862 135.53 23.9017 135.367 23.9936C135.11 24.1378 134.834 24.2134 134.549 24.2512C134.525 24.2544 134.501 24.257 134.477 24.2603L134.464 24.2679Z" fill="#393939"/>
<path d="M134.544 24.2546C134.829 24.2168 135.105 24.1412 135.362 23.9965C135.525 23.9053 135.672 23.7897 135.768 23.625C135.315 23.806 134.887 24.024 134.472 24.2637C134.496 24.2605 134.52 24.2578 134.544 24.2546Z" fill="#393939"/>
<path d="M153.636 24.2679H158.993V23.5566H153.636V24.2679ZM161.48 24.2679H171.867C171.449 23.9916 171.005 23.7546 170.535 23.5566H162.67C162.341 23.7097 162.03 23.8861 161.738 24.0861C161.65 24.146 161.564 24.2066 161.48 24.2679Z" fill="#393939"/>
<path d="M194.57 23.5566L194.117 24.2679H200V23.5566H194.57ZM184.406 24.2679V23.5566H178.656V24.2679H184.406Z" fill="#393939"/>
<path d="M43.6954 24.2679C43.4768 24.1408 43.2504 24.0208 43.0159 23.9079C42.7552 23.782 42.485 23.665 42.2049 23.5566H33.5549C33.5069 23.5748 33.459 23.5932 33.4113 23.612C32.9344 23.7998 32.4781 24.0185 32.042 24.2679H43.6954Z" fill="#FFC700"/>
<path d="M138.142 16.7581C138.178 16.6034 138.196 16.44 138.196 16.2671C138.196 16.192 138.192 16.1183 138.182 16.0469H135.29C134.991 16.1137 134.685 16.1517 134.372 16.1596C133.958 16.1709 133.544 16.1667 133.13 16.1553C132.756 16.1451 132.382 16.1182 132.01 16.0943C131.781 16.0801 131.552 16.0631 131.324 16.0469H120.751C120.681 16.2823 120.621 16.5194 120.568 16.7581H138.142Z" fill="#393939"/>
<path d="M57.0492 16.7581C57.1553 16.5152 57.2298 16.278 57.2735 16.0469H28.4134C28.2298 16.2784 28.049 16.5152 27.8721 16.7581H57.0492Z" fill="#393939"/>
<path d="M0 16.7581H19.4759C19.0229 16.4814 18.5242 16.2443 17.98 16.0469H0V16.7581Z" fill="#FFC700"/>
<path d="M124.377 11.7835C124.289 11.647 124.197 11.5132 124.1 11.3826C124.02 11.2747 123.936 11.1711 123.85 11.0723H119.136C119.139 11.0929 119.143 11.1135 119.147 11.1341C118.933 11.2692 118.777 11.465 118.629 11.6681C118.602 11.7059 118.576 11.7442 118.551 11.7835H119.494C119.543 11.7633 119.593 11.7424 119.645 11.719L119.646 11.7835H124.377Z" fill="#393939"/>
<path d="M53.7659 11.7835C53.4509 11.557 53.1432 11.3208 52.8491 11.0723H33.7942C33.4747 11.2948 33.1487 11.5318 32.8184 11.7835H53.7659Z" fill="#393939"/>
<path d="M137.291 20.553C137.552 20.3636 137.772 20.1342 137.93 19.8418H120.342C120.358 20.0799 120.382 20.3171 120.415 20.553H137.291Z" fill="#393939"/>
<path d="M48.9069 20.553C49.0871 20.4983 49.2636 20.4342 49.4351 20.3585C49.9223 20.1432 50.4061 19.9685 50.8934 19.8418H26.0257C25.9129 20.0752 25.8029 20.3117 25.6982 20.553H33.2039C36.4034 19.4484 39.5868 19.8511 42.0064 20.553H48.9069Z" fill="#393939"/>
<path d="M0 20.553H22.5091C22.4208 20.3084 22.3223 20.0713 22.2137 19.8418H0V20.553Z" fill="#FFC700"/>
<path d="M153.636 54.138H159.385V53.4268H153.636V54.138Z" fill="#393939"/>
<path d="M128.067 27.9802C128.067 27.9802 128.212 27.7098 128.501 27.2725H127.815C127.909 27.4998 127.993 27.7354 128.067 27.9802Z" fill="#393939"/>
<path d="M24.155 27.2725C24.144 27.5074 24.1357 27.7439 24.1328 27.9837H25.1254C25.2604 27.7394 25.3973 27.5033 25.5356 27.2725H24.155Z" fill="#393939"/>
<path d="M0 27.9837H6.53396V27.2725H0V27.9837ZM15.3838 27.9837H22.2634C22.3785 27.7544 22.4815 27.5173 22.5725 27.2725H15.946C15.8139 27.4919 15.6602 27.695 15.4849 27.8819C15.4524 27.9166 15.4187 27.9505 15.3838 27.9837Z" fill="#FFC700"/>
<path d="M60.2905 27.9837C60.5803 27.9473 60.8715 27.929 61.1642 27.929C61.512 27.929 61.8498 27.9473 62.1776 27.9837H70.6328C70.5077 27.7385 70.3743 27.5014 70.2328 27.2725H51.9976C51.8436 27.5009 51.6971 27.7379 51.5576 27.9837H60.2905Z" fill="#FFC700"/>
<path d="M102.792 27.9837C102.727 27.7401 102.651 27.5029 102.564 27.2725H84.4077C84.2941 27.5012 84.1904 27.7383 84.0967 27.9837H102.792Z" fill="#393939"/>
<path d="M106.308 27.9837H126.057C126.005 27.8039 125.947 27.6275 125.881 27.4546C125.875 27.4395 125.871 27.4232 125.866 27.4082C125.848 27.3626 125.83 27.3174 125.811 27.2725H106.308V27.9837Z" fill="#393939"/>
<path d="M139.495 27.9837C139.785 27.9473 140.076 27.929 140.369 27.929C140.685 27.929 140.989 27.9495 141.286 27.9837H149.837C149.712 27.7385 149.579 27.5014 149.437 27.2725H131.21C131.181 27.3152 131.152 27.3583 131.123 27.4017C130.999 27.5903 130.878 27.7842 130.763 27.9837H139.495Z" fill="#393939"/>
<path d="M161.973 27.9837C162.059 27.7267 162.15 27.4903 162.243 27.2725H153.636V27.9837H161.973ZM164.926 27.2725C164.992 27.4214 165.042 27.5294 165.065 27.5734C165.475 28.3374 166.146 27.7931 166.356 27.5416C166.407 27.4803 166.477 27.3871 166.559 27.2725H164.926ZM168.189 27.2725C168.166 27.53 168.126 27.769 168.079 27.9837H174.983C174.87 27.7379 174.75 27.5009 174.623 27.2725H168.189Z" fill="#393939"/>
<path d="M192.202 27.2725L191.749 27.9837H200V27.2725H192.202ZM184.406 27.9837V27.2725H178.656V27.9837H184.406Z" fill="#393939"/>
<path d="M35.2672 27.9837C35.3309 27.7874 35.3509 27.557 35.3253 27.2781L35.3247 27.2725H28.7487C28.5873 27.5009 28.4331 27.7379 28.2861 27.9837H35.2672ZM38.4199 27.2725C38.4686 27.3733 38.5178 27.4736 38.5679 27.5735C38.6443 27.7256 38.7573 27.8768 38.8844 27.9837H47.1813C47.059 27.7393 46.9269 27.5022 46.7851 27.2725H38.4199Z" fill="#FFC700"/>
<path d="M132.526 23.0032C132.862 22.7563 133.217 22.5177 133.59 22.292H122.021C122.579 22.4912 123.134 22.7259 123.672 23.0032H132.526Z" fill="#393939"/>
<path d="M25.0419 22.292C24.9668 22.526 24.8949 22.7626 24.8281 23.0032H29.0165C29.3098 22.7478 29.6059 22.5112 29.9042 22.292H25.0419Z" fill="#393939"/>
<path d="M0 23.0032H6.53396V22.292H0V23.0032ZM16.2769 23.0032H23.0342C23.0122 22.7609 22.983 22.5238 22.9469 22.292H15.9322C16.0701 22.5082 16.185 22.7453 16.2769 23.0032Z" fill="#FFC700"/>
<path d="M58.7031 23.0005H63.5217C62.7189 22.8687 61.8608 22.8027 60.9475 22.8027C60.1735 22.8027 59.4254 22.8686 58.7031 23.0005Z" fill="#FFC700"/>
<path d="M96.3123 23.0005C95.4571 22.8687 94.5112 22.8027 93.4747 22.8027C92.5168 22.8027 91.627 22.8687 90.8047 23.0005H96.3123Z" fill="#393939"/>
<path d="M137.906 23.0005H142.652C142.392 22.9594 142.126 22.9248 141.855 22.8972C141.307 22.841 140.745 22.8027 140.151 22.8027C139.377 22.8027 138.629 22.8686 137.906 23.0005Z" fill="#393939"/>
<path d="M164.375 23.0005H168.68C167.99 22.8687 167.256 22.8027 166.48 22.8027C165.727 22.8027 165.025 22.8686 164.375 23.0005Z" fill="#393939"/>
<path d="M40.1913 23.0004C39.435 22.8686 38.6283 22.8027 37.7712 22.8027C37.0094 22.8027 36.2689 22.8686 35.5498 23.0004H40.1913Z" fill="#FFC700"/>
<path d="M47.2632 4.27375C47.4056 4.0362 47.5433 3.80005 47.6658 3.5625H41.1351C40.9287 3.78371 40.7342 4.01025 40.6045 4.27375H47.2632Z" fill="#393939"/>
<path d="M121.579 9.33039L121.581 9.31611C121.618 9.07352 121.606 8.83597 121.507 8.61914H120.673C120.601 8.68336 120.531 8.75066 120.465 8.82103C120.324 8.97168 120.207 9.14492 120.104 9.33039H121.579Z" fill="#393939"/>
<path d="M51.2504 9.33039C51.0871 9.09088 50.9232 8.85361 50.758 8.61914H38.0007L38.0215 8.63613C37.6692 8.79723 37.192 9.02797 36.6279 9.33039H51.2504Z" fill="#393939"/>
<path d="M0 33.0433H22.156C21.8888 32.7828 21.6024 32.5456 21.2966 32.332H0V33.0433Z" fill="#FFC700"/>
<path d="M55.7354 33.0404C55.7491 32.7938 55.7727 32.5568 55.8058 32.3291H50.0642C50.0267 32.5618 49.9939 32.7989 49.9658 33.0404H55.7354ZM66.4171 32.3291C66.4436 32.5558 66.4627 32.7929 66.4746 33.0404H71.9785C71.9574 32.7992 71.9322 32.5621 71.9026 32.3291H66.4171Z" fill="#FFC700"/>
<path d="M102.405 33.0404C102.522 32.8103 102.624 32.5732 102.71 32.3291H96.686C96.5892 32.4502 96.4794 32.564 96.3567 32.6709C96.1921 32.8145 96.0065 32.9376 95.7998 33.0404H102.405Z" fill="#393939"/>
<path d="M106.308 33.0404H112.057V32.3291H106.308V33.0404ZM119.468 33.0404H125.58C125.706 32.8069 125.815 32.5696 125.909 32.3291H120.252C120.141 32.515 120.001 32.677 119.832 32.8135C119.728 32.8978 119.607 32.9734 119.468 33.0404Z" fill="#393939"/>
<path d="M134.94 33.0404C134.955 32.7936 134.979 32.5568 135.013 32.3291H129.274C129.236 32.5621 129.203 32.7991 129.175 33.0404H134.94ZM145.622 32.3291C145.648 32.5558 145.668 32.7929 145.68 33.0404H151.183C151.162 32.7992 151.137 32.5621 151.108 32.3291H145.622Z" fill="#393939"/>
<path d="M159.46 33.0404C159.491 32.794 159.532 32.5569 159.582 32.3291H153.636V33.0404H159.46ZM172.491 32.3291C172.507 32.3597 172.522 32.3905 172.537 32.4216C172.653 32.658 172.799 32.8624 172.967 33.0404H176.198C176.177 32.799 176.153 32.5619 176.126 32.3291H172.491Z" fill="#393939"/>
<path d="M188.978 32.3291L188.525 33.0404H193.834L194.251 32.3867V33.0404H200V32.3291H188.978ZM184.406 33.0404V32.3291H178.656V33.0404H184.406Z" fill="#393939"/>
<path d="M29.9239 33.0404C30.0675 32.9894 30.2117 32.9407 30.3565 32.8946C30.7364 32.7737 31.0403 32.5934 31.2835 32.3291H26.6864C26.6468 32.5622 26.6123 32.7993 26.583 33.0404H29.9239Z" fill="#FFC700"/>
<path d="M0 45.3665H22.4346C22.6252 45.1401 22.8015 44.9029 22.9634 44.6553H0V45.3665Z" fill="#FFC700"/>
<path d="M52.7286 45.3665H69.9077C70.075 45.1397 70.2317 44.9026 70.3774 44.6553H52.1826C52.3562 44.9033 52.5383 45.1404 52.7286 45.3665Z" fill="#FFC700"/>
<path d="M84.0908 44.6553C84.222 44.902 84.365 45.1391 84.5197 45.3665H102.717C102.872 45.1382 103.012 44.9011 103.137 44.6553H84.0908Z" fill="#393939"/>
<path d="M106.308 45.3665H126.136C126.283 45.1391 126.415 44.902 126.533 44.6553H106.308V45.3665Z" fill="#393939"/>
<path d="M131.931 45.3665H149.11C149.277 45.1397 149.434 44.9026 149.58 44.6553H131.385C131.558 44.9033 131.741 45.1404 131.931 45.3665Z" fill="#393939"/>
<path d="M153.636 45.3665H159.385V45.0472C159.453 45.1555 159.523 45.262 159.595 45.3665H174.041C174.2 45.1401 174.351 44.9029 174.493 44.6553H153.636V45.3665Z" fill="#393939"/>
<path d="M178.656 44.6553V45.3665H185.975L186.428 44.6553H178.656ZM194.251 44.6553V45.3665H200V44.6553H194.251Z" fill="#393939"/>
<path d="M28.75 44.6553C28.9197 44.9028 29.0977 45.14 29.2843 45.3665H46.1306C46.3099 45.139 46.4793 44.9019 46.6386 44.6553H28.75Z" fill="#FFC700"/>
<path d="M129.815 25.5325C130.014 25.3015 130.23 25.063 130.462 24.8213H126.19C126.409 25.0444 126.616 25.2812 126.81 25.5325H129.815Z" fill="#393939"/>
<path d="M24.426 24.8213C24.3853 25.0557 24.3479 25.2925 24.3154 25.5325H26.6984C26.8831 25.2853 27.0701 25.0491 27.2588 24.8213H24.426Z" fill="#393939"/>
<path d="M0 25.5325H6.53396V24.8213H0V25.5325ZM16.5107 25.5325H22.9991C23.0302 25.3008 23.053 25.0637 23.0675 24.8213H16.552C16.5512 25.0683 16.5374 25.3053 16.5107 25.5325Z" fill="#FFC700"/>
<path d="M53.5 25.5325H68.84C68.5775 25.2775 68.2999 25.0405 68.0075 24.8213H54.3723C54.0704 25.0406 53.7796 25.2777 53.5 25.5325Z" fill="#FFC700"/>
<path d="M101.523 25.5325C101.304 25.2807 101.06 25.0437 100.791 24.8215L100.791 24.8213H86.3716C86.3132 24.8681 86.2556 24.9156 86.1989 24.964C85.9888 25.1436 85.7907 25.3331 85.6045 25.5325H101.523Z" fill="#393939"/>
<path d="M106.308 25.5325H124.624C124.534 25.4435 124.439 25.3566 124.341 25.2719C124.156 25.1123 123.957 24.962 123.746 24.8213H106.308V25.5325Z" fill="#393939"/>
<path d="M132.711 25.5325H148.049C147.786 25.2773 147.508 25.0403 147.214 24.8213H133.592C133.287 25.0406 132.993 25.2773 132.711 25.5325Z" fill="#393939"/>
<path d="M163.281 25.5325C163.608 25.1513 163.84 25.0062 163.84 25.0062C163.921 25.1342 164.02 25.3193 164.126 25.5325H167.722C167.815 25.3889 167.886 25.2803 167.92 25.2292C167.959 25.3308 167.993 25.432 168.023 25.5325H173.359C173.121 25.2775 172.871 25.0405 172.609 24.8213H160.785C160.524 25.0498 160.282 25.2869 160.061 25.5325H163.281ZM153.636 25.5325H158.993V24.8213H153.636V25.5325Z" fill="#393939"/>
<path d="M193.764 24.8213L193.311 25.5325H200V24.8213H193.764ZM184.406 25.5325V24.8213H178.656V25.5325H184.406Z" fill="#393939"/>
<path d="M35.5119 25.5325C35.6011 25.2773 35.7884 25.2647 36.0105 25.4819C36.0271 25.4981 36.0431 25.5151 36.0588 25.5325H36.496C36.5774 25.2689 36.7189 25.0537 36.975 25.0117C37.2715 24.9635 37.4583 25.252 37.5961 25.5325H45.3749L45.3011 25.4621C45.0607 25.2353 44.8053 25.0216 44.535 24.8213H31.1764C30.8691 25.0409 30.5732 25.2779 30.2891 25.5325H35.5119Z" fill="#FFC700"/>
<path d="M6.53396 38.0208V37.3096H0V38.0208H6.53396ZM17.7459 37.3096C17.789 37.5365 17.8199 37.7736 17.8385 38.0208H24.3462C24.3248 37.7778 24.2961 37.5408 24.26 37.3096H17.7459Z" fill="#FFC700"/>
<path d="M49.9197 38.0208H55.74C55.7317 37.8848 55.7258 37.7465 55.7222 37.6056H72.0567V37.3096H49.8701C49.8825 37.5503 49.8991 37.7874 49.9197 38.0208Z" fill="#FFC700"/>
<path d="M90.6455 37.3096V38.0208H103.202C103.13 37.8871 103.054 37.7566 102.972 37.6289C102.902 37.519 102.825 37.4126 102.742 37.3096H90.6455Z" fill="#393939"/>
<path d="M106.308 38.0208H126.289C126.205 37.8875 126.114 37.7569 126.018 37.6289C125.935 37.5187 125.848 37.4123 125.758 37.3096H106.308V38.0208Z" fill="#393939"/>
<path d="M129.132 38.0208H134.953C134.944 37.8848 134.939 37.7465 134.935 37.6056H151.27V37.3096H129.083C129.095 37.5503 129.112 37.7874 129.132 38.0208Z" fill="#393939"/>
<path d="M175.274 37.3096C175.201 37.5508 175.116 37.7876 175.021 38.0208H176.229C176.245 37.7875 176.256 37.5504 176.266 37.3096H175.274ZM159.415 38.0208C159.399 37.7908 159.39 37.5537 159.386 37.3096H153.636V38.0208H159.415Z" fill="#393939"/>
<path d="M185.804 37.3096L185.351 38.0208H190.66L191.114 37.3096H185.804ZM184.406 38.0208V37.3096H178.656V38.0208H184.406ZM194.251 37.3096V38.0208H200V37.3096H194.251Z" fill="#393939"/>
<path d="M30.9928 38.0208C30.5242 37.9056 30.0537 37.7981 29.5832 37.6906C29.248 37.6139 28.9231 37.5099 28.6463 37.3096H26.4717C26.4838 37.5504 26.4999 37.7875 26.5199 38.0208H30.9928Z" fill="#FFC700"/>
<path d="M125.684 14.3109C125.552 14.0817 125.435 13.8429 125.324 13.5996H121.512C121.458 13.8384 121.399 14.0756 121.334 14.3109H125.684Z" fill="#393939"/>
<path d="M56.9839 14.3109C56.8362 14.0611 56.6424 13.8237 56.4054 13.5996H30.6783C30.4361 13.8288 30.195 14.0654 29.9561 14.3109H56.9839Z" fill="#393939"/>
<path d="M153.636 56.5921H159.385V55.8809H153.636V56.5921Z" fill="#393939"/>
<path d="M6.53396 40.3919V39.6807H0V40.3919H6.53396ZM17.7812 39.6807C17.7421 39.9313 17.6884 40.1684 17.62 40.3919H24.336C24.3577 40.1589 24.3732 39.9218 24.3826 39.6807H17.7812Z" fill="#FFC700"/>
<path d="M50.296 40.3919H56.2023C56.1183 40.1661 56.0452 39.929 55.9829 39.6807H50.1436C50.1892 39.9224 50.2401 40.1595 50.296 40.3919Z" fill="#FFC700"/>
<path d="M97.8779 39.6807C97.9658 39.896 98.0271 40.1331 98.0618 40.3919H103.897C103.873 40.1484 103.838 39.9113 103.792 39.6807H97.8779Z" fill="#393939"/>
<path d="M112.057 40.3919V39.6807H106.308V40.3919H112.057ZM121.292 39.6807C121.371 39.8946 121.422 40.1318 121.448 40.3919H127.151C127.118 40.1488 127.071 39.9117 127.011 39.6807H121.292Z" fill="#393939"/>
<path d="M129.502 40.3919H135.409C135.325 40.1661 135.251 39.929 135.189 39.6807H129.35C129.395 39.9224 129.446 40.1595 129.502 40.3919Z" fill="#393939"/>
<path d="M174.049 39.6807C173.762 39.9868 173.427 40.2264 173.044 40.3919H175.952C175.993 40.1596 176.03 39.9224 176.064 39.6807H174.049ZM159.896 40.3919C159.811 40.1664 159.736 39.9293 159.672 39.6807H153.636V40.3919H159.896Z" fill="#393939"/>
<path d="M178.656 39.6807V40.3919H189.149L189.602 39.6807H178.656ZM194.251 39.6807V40.3919H200V39.6807H194.251Z" fill="#393939"/>
<path d="M32.9496 40.3919C32.8621 40.1667 32.7819 39.9296 32.709 39.6807H26.7393C26.784 39.9224 26.8337 40.1595 26.8886 40.3919H32.9496ZM48.1708 40.3919C48.1895 40.255 48.2062 40.1167 48.2208 39.9771H42.3835C42.3501 40.1193 42.3131 40.2575 42.2724 40.3919H48.1708Z" fill="#FFC700"/>
<path d="M153.636 55.3266H159.385V54.6943H153.636V55.3266Z" fill="#393939"/>
<path d="M153.636 50.3471H159.385V49.7148H153.636V50.3471Z" fill="#393939"/>
<path d="M128.877 26.7162C129.018 26.5204 129.178 26.308 129.356 26.084H127.195C127.324 26.2863 127.445 26.4968 127.556 26.7162H128.877Z" fill="#393939"/>
<path d="M24.2421 26.084C24.2198 26.2928 24.2004 26.5033 24.1846 26.7162H25.8746C26.0132 26.4996 26.153 26.2881 26.2944 26.084H24.2421Z" fill="#393939"/>
<path d="M0 26.7162H6.53396V26.084H0V26.7162ZM16.2196 26.7162H22.7539C22.8127 26.5105 22.8636 26.2997 22.9068 26.084H16.4157C16.3647 26.3056 16.2993 26.5162 16.2196 26.7162Z" fill="#FFC700"/>
<path d="M52.3984 26.7162H69.8627C69.7048 26.497 69.5383 26.2863 69.3632 26.084H52.9388C52.7504 26.2849 52.5704 26.4957 52.3984 26.7162Z" fill="#FFC700"/>
<path d="M102.318 26.7162C102.208 26.4973 102.085 26.2865 101.948 26.084H85.1375C84.984 26.2861 84.8408 26.4968 84.708 26.7162H102.318Z" fill="#393939"/>
<path d="M106.308 26.7162H125.539C125.414 26.4961 125.274 26.2853 125.117 26.084H106.308V26.7162Z" fill="#393939"/>
<path d="M131.617 26.7162H149.075C148.917 26.497 148.751 26.2863 148.576 26.084H132.152C131.965 26.2845 131.787 26.4958 131.617 26.7162Z" fill="#393939"/>
<path d="M162.502 26.7162C162.625 26.4763 162.749 26.2667 162.868 26.084H159.608C159.456 26.2893 159.316 26.5001 159.189 26.7162H162.502ZM164.391 26.084C164.49 26.2977 164.589 26.5152 164.679 26.7162H166.941C167.08 26.5095 167.225 26.2901 167.36 26.084H164.391ZM168.149 26.084C168.184 26.3008 168.202 26.5123 168.207 26.7162H174.289C174.146 26.4961 173.994 26.2854 173.835 26.084H168.149ZM153.636 26.7162H158.993V26.084H153.636V26.7162Z" fill="#393939"/>
<path d="M192.958 26.084L192.555 26.7162H200V26.084H192.958ZM184.406 26.7162V26.084H178.656V26.7162H184.406Z" fill="#393939"/>
<path d="M35.323 26.7162C35.3398 26.5059 35.3717 26.294 35.408 26.084H29.7222C29.5285 26.2855 29.3425 26.4963 29.1641 26.7162H35.323ZM37.8635 26.084C37.9612 26.2945 38.0578 26.5056 38.1554 26.7162H46.4112C46.253 26.498 46.085 26.2874 45.9073 26.084H37.8635Z" fill="#FFC700"/>
<path d="M134.595 21.7416C135.081 21.5026 135.595 21.2891 136.134 21.1094H120.505C120.53 21.2328 120.557 21.3559 120.587 21.4786C120.609 21.5683 120.636 21.6549 120.663 21.7416H134.595Z" fill="#393939"/>
<path d="M44.8087 21.6057C45.1055 21.3939 45.429 21.2272 45.7838 21.1094H43.6403C44.0772 21.2789 44.47 21.4486 44.8087 21.6057ZM25.4715 21.1094C25.3891 21.3171 25.3102 21.5281 25.2344 21.7416H30.7271C31.106 21.5054 31.4875 21.2951 31.8703 21.1094H25.4715Z" fill="#393939"/>
<path d="M0 21.7416H6.53396V21.1094H0V21.7416ZM15.483 21.7416H22.8454C22.7994 21.5259 22.7469 21.3152 22.6879 21.1094H14.4456C14.8686 21.2702 15.2144 21.481 15.483 21.7416Z" fill="#FFC700"/>
<path d="M123.268 10.516C122.978 10.2894 122.658 10.108 122.305 9.97937C122.207 9.94362 122.108 9.91254 122.008 9.88379H119.271C119.214 9.98973 119.173 10.104 119.145 10.2256C119.123 10.3223 119.109 10.4191 119.102 10.516H123.268Z" fill="#393939"/>
<path d="M52.24 10.516C52.0351 10.3138 51.841 10.1034 51.6601 9.88379H35.6412C35.3155 10.0756 34.9729 10.2862 34.6172 10.516H52.24Z" fill="#393939"/>
<path d="M137.888 15.4964C137.718 15.3594 137.515 15.3287 137.309 15.3287C137.098 15.3283 136.905 15.4036 136.718 15.4964H137.888ZM126.678 15.4964C126.465 15.3444 126.27 15.1553 126.091 14.9342C126.073 14.911 126.054 14.8878 126.036 14.8643H121.152C121.099 15.0283 121.043 15.191 120.982 15.3526C120.964 15.4005 120.947 15.4484 120.93 15.4964H126.678Z" fill="#393939"/>
<path d="M57.3285 15.4964C57.323 15.2792 57.2887 15.0684 57.2266 14.8643H29.4329C29.2454 15.0696 29.0601 15.2804 28.877 15.4964H57.3285Z" fill="#393939"/>
<path d="M0 15.4968H15.7348C14.9163 15.3739 14.0272 15.3125 13.0674 15.3125H0V15.4968Z" fill="#FFC700"/>
<path d="M153.636 51.6146H159.385V50.9824H153.636V51.6146Z" fill="#393939"/>
<path d="M6.53396 39.1244V38.4922H0V39.1244H6.53396ZM17.8592 38.4922L17.8598 38.599C17.8598 38.7795 17.854 38.9547 17.8424 39.1244H24.3933V39.12C24.3933 38.9067 24.3882 38.6975 24.3784 38.4922H17.8592Z" fill="#FFC700"/>
<path d="M50.05 39.1244H55.8659C55.8299 38.9204 55.8004 38.7097 55.7775 38.4922H49.9658C49.9903 38.7062 50.0184 38.9169 50.05 39.1244Z" fill="#FFC700"/>
<path d="M96.7422 38.4922C96.9295 38.5777 97.0919 38.6763 97.2291 38.7882C97.3531 38.8894 97.4636 39.0015 97.5612 39.1244H103.66C103.596 38.9074 103.521 38.6966 103.434 38.4922H96.7422Z" fill="#393939"/>
<path d="M112.057 39.1244V38.4922H106.308V39.1244H112.057ZM120.181 38.4922C120.327 38.5592 120.457 38.6342 120.573 38.7174C120.735 38.8336 120.875 38.9693 120.993 39.1244H126.838C126.758 38.9079 126.666 38.6973 126.561 38.4922H120.181Z" fill="#393939"/>
<path d="M129.259 39.1244H135.075C135.039 38.9204 135.009 38.7097 134.986 38.4922H129.175C129.199 38.7062 129.227 38.9169 129.259 39.1244Z" fill="#393939"/>
<path d="M174.812 38.4922C174.761 38.5983 174.709 38.7039 174.655 38.8086C174.598 38.9183 174.538 39.0236 174.474 39.1244H176.133C176.156 38.9169 176.177 38.7062 176.195 38.4922H174.812ZM159.551 39.1244C159.514 38.9205 159.483 38.7098 159.458 38.4922H153.636V39.1244H159.551Z" fill="#393939"/>
<path d="M185.049 38.4922L184.646 39.1244H189.955L190.358 38.4922H185.049ZM184.406 39.1244V38.4922H178.656V39.1244H184.406ZM194.251 38.4922V39.1244H200V38.4922H194.251Z" fill="#393939"/>
<path d="M32.5754 39.1244C32.5316 38.9201 32.4932 38.7085 32.4586 38.4922H26.5703C26.5943 38.7061 26.6217 38.9169 26.6528 39.1244H32.5754Z" fill="#FFC700"/>
<path d="M0 44.099H23.2919C23.4016 43.8947 23.5027 43.6839 23.5951 43.4668H0V44.099Z" fill="#FFC700"/>
<path d="M51.8212 44.099H70.678C70.7796 43.8945 70.8745 43.6838 70.9629 43.4668H64.308C63.58 43.792 62.6056 43.9539 61.384 43.9539C60.6878 43.9539 59.9974 43.8346 59.3155 43.5965C59.2027 43.557 59.0921 43.5137 58.9836 43.4668H51.4609C51.576 43.6841 51.6961 43.8948 51.8212 44.099Z" fill="#FFC700"/>
<path d="M95.9716 43.4668C95.3169 43.6653 94.4853 43.7645 93.4765 43.7645C92.6339 43.7645 91.9303 43.6931 91.364 43.5506C91.2622 43.525 91.1638 43.497 91.069 43.4668H83.5781C83.653 43.6834 83.7353 43.8942 83.8248 44.099H103.387C103.47 43.8922 103.543 43.6815 103.607 43.4668H95.9716Z" fill="#393939"/>
<path d="M118.172 43.4668C117.999 43.4756 117.819 43.48 117.632 43.48H112.057V43.4668H106.308V44.099H126.764C126.839 43.8942 126.905 43.6834 126.961 43.4668H118.172Z" fill="#393939"/>
<path d="M131.027 44.099H149.884C149.986 43.8945 150.081 43.6838 150.169 43.4668H143.514C142.786 43.792 141.812 43.9539 140.59 43.9539C139.894 43.9539 139.204 43.8346 138.522 43.5965C138.409 43.557 138.298 43.5137 138.19 43.4668H130.667C130.782 43.6841 130.902 43.8948 131.027 44.099Z" fill="#393939"/>
<path d="M166.817 43.4668C166.295 43.6647 165.735 43.764 165.136 43.764C164.405 43.764 163.734 43.6649 163.123 43.4668H153.636V44.099H174.789C174.89 43.8947 174.986 43.6839 175.077 43.4668H166.817Z" fill="#393939"/>
<path d="M178.656 43.4668V44.099H186.781L187.184 43.4668H178.656ZM194.251 43.4668V44.099H200V43.4668H194.251Z" fill="#393939"/>
<path d="M39.5098 43.4668C38.9765 43.665 38.3968 43.764 37.7706 43.764C37.1157 43.764 36.5016 43.6651 35.9282 43.4668H28.0391C28.1518 43.6837 28.2694 43.8945 28.3922 44.099H46.9677C47.033 43.9816 47.0962 43.8622 47.1574 43.7409C47.2031 43.6504 47.2473 43.559 47.2902 43.4668H39.5098Z" fill="#FFC700"/>
</svg>
