<svg width="146" height="31" viewBox="0 0 146 31" fill="none" xmlns="http://www.w3.org/2000/svg">
<path d="M131.573 14.6249C87.6086 -3.8274 44.4438 -4.47488 0 10.7402C3.19739 14.1393 5.91518 12.8444 7.99348 12.1969C23.9804 7.82667 40.447 7.34105 56.7537 6.6936C80.2546 5.72243 102.476 11.2258 124.219 20.1282C125.178 20.4519 125.977 21.0993 127.896 22.3942C116.865 24.6603 105.834 20.7756 96.2415 25.3077C96.4014 25.9552 96.4014 26.7645 96.5613 27.412C103.755 27.8976 111.109 28.3831 118.304 29.0306C125.498 29.678 132.532 30.4873 139.726 30.9729C145.002 31.2966 147.24 28.7069 145.321 23.851C142.923 17.5384 139.566 11.7114 136.529 5.72247C136.209 5.07502 135.729 4.2657 135.09 3.94197C133.331 3.29453 131.573 3.13263 129.654 2.64705C129.335 4.26567 128.535 6.04615 128.695 7.50291C129.015 9.44525 130.134 11.0639 131.573 14.6249Z" fill="url(#paint0_linear_199_5294)"/>
<defs>
<linearGradient id="paint0_linear_199_5294" x1="142.631" y1="31" x2="9.32669" y2="16.1682" gradientUnits="userSpaceOnUse">
<stop stop-color="#D0E8F7"/>
<stop offset="0.947217" stop-color="white"/>
</linearGradient>
</defs>
</svg>
